<?xml version="1.0" standalone="no"?>
<!DOCTYPE svg PUBLIC "-//W3C//DTD SVG 20010904//EN"
 "http://www.w3.org/TR/2001/REC-SVG-20010904/DTD/svg10.dtd">
<svg version="1.0" xmlns="http://www.w3.org/2000/svg"
 width="640.000000pt" height="640.000000pt" viewBox="0 0 640.000000 640.000000"
 preserveAspectRatio="xMidYMid meet">
<metadata>
Created by potrace 1.14, written by Peter Selinger 2001-2017
</metadata>
<g transform="translate(0.000000,640.000000) scale(0.100000,-0.100000)"
fill="#000000" stroke="none">
<path d="M1524 6363 c-4 -21 -8 -40 -9 -43 0 -3 -5 -27 -10 -55 -4 -27 -10
-54 -11 -60 -4 -12 -12 -56 -18 -88 -2 -13 -13 -71 -25 -128 -11 -57 -23 -117
-26 -134 -3 -16 -10 -52 -15 -80 -6 -27 -13 -63 -15 -80 -3 -16 -12 -59 -20
-95 -8 -36 -16 -78 -19 -95 -3 -16 -10 -55 -16 -85 -6 -30 -13 -66 -16 -80 -6
-34 -23 -119 -30 -150 -3 -14 -7 -35 -9 -48 -3 -12 -6 -32 -9 -45 -2 -12 -7
-40 -11 -62 -3 -22 -9 -49 -12 -60 -4 -11 -8 -29 -8 -40 -1 -11 -12 -69 -25
-130 -13 -60 -24 -119 -26 -130 -2 -11 -6 -33 -9 -50 -13 -64 -64 -323 -69
-351 -3 -16 -8 -42 -11 -59 -3 -16 -35 -178 -72 -360 -36 -181 -66 -339 -68
-350 -2 -11 -10 -56 -19 -100 -8 -44 -17 -92 -20 -108 -3 -15 -7 -35 -10 -45
-3 -9 -7 -34 -10 -54 -3 -21 -11 -59 -17 -85 -6 -27 -13 -61 -16 -78 -5 -32
-17 -93 -27 -135 -5 -23 -15 -81 -22 -125 -1 -11 -3 -20 -4 -20 -2 0 -6 -18
-14 -65 -3 -19 -8 -46 -11 -60 -21 -98 -37 -179 -40 -205 -2 -16 -4 -30 -5
-30 -2 0 -4 -9 -5 -20 -2 -11 -15 -80 -30 -154 -15 -74 -29 -144 -31 -155 -2
-12 -11 -55 -19 -96 -8 -41 -17 -86 -19 -100 -3 -14 -5 -25 -6 -25 -1 0 -3 -9
-5 -20 -4 -29 -12 -73 -46 -240 -16 -82 -32 -166 -35 -185 -4 -19 -7 -39 -9
-45 -1 -5 -5 -28 -10 -50 -4 -22 -10 -49 -12 -60 -7 -34 -32 -165 -40 -210 -2
-16 -14 -70 -24 -120 -11 -49 -22 -103 -24 -120 -3 -16 -14 -74 -25 -130 -10
-55 -22 -111 -24 -125 -3 -14 -10 -50 -16 -80 -6 -30 -13 -66 -16 -80 -20
-107 -36 -191 -44 -225 -5 -22 -11 -53 -14 -70 -2 -16 -7 -42 -11 -57 l-7 -28
1190 0 1189 0 14 77 c7 43 14 83 14 88 1 6 5 28 9 50 4 22 10 51 13 65 2 14
19 108 38 210 19 102 36 199 39 215 3 17 8 44 11 60 3 17 12 64 20 105 9 41
17 89 20 105 2 17 11 68 20 115 9 47 18 94 19 105 2 11 6 36 10 55 4 19 8 42
10 50 2 8 6 31 9 50 9 47 17 90 22 120 2 14 11 61 19 105 9 44 18 94 21 110 3
17 10 53 15 80 5 28 12 65 15 83 6 41 13 81 20 112 3 14 9 50 15 80 6 30 12
66 15 80 6 29 13 67 20 113 3 17 8 39 10 47 2 8 6 33 10 55 3 22 7 47 10 55 2
8 6 31 9 50 3 19 8 46 11 60 3 14 8 39 10 55 13 73 25 142 30 165 3 14 7 39
10 55 3 17 10 53 15 80 12 61 18 99 26 145 3 19 12 65 19 101 8 36 17 87 21
115 3 27 9 53 12 59 3 5 7 23 9 40 3 39 9 73 48 275 2 8 10 53 19 100 15 81
19 107 31 175 3 17 10 53 15 80 5 28 12 64 15 80 4 28 7 41 20 105 2 14 7 39
10 55 2 17 7 41 10 55 2 14 7 39 10 55 8 50 25 138 31 165 3 14 7 39 9 55 3
17 7 41 10 55 10 45 15 75 20 105 2 17 7 41 10 55 4 23 16 84 30 165 2 17 7
41 10 55 3 14 8 45 11 70 3 25 8 48 10 52 3 4 7 25 10 48 7 50 12 75 14 75 1
0 3 11 5 25 2 14 6 39 9 55 18 90 36 187 45 240 18 106 21 120 26 145 3 14 7
36 10 50 9 57 17 104 22 124 2 11 6 32 8 46 2 14 6 34 8 45 2 11 7 36 11 55 3
19 9 46 12 60 3 14 7 36 9 50 2 14 4 25 5 25 1 0 3 11 5 25 2 14 10 63 19 110
9 47 18 100 20 118 l5 32 -1149 0 -1148 0 -8 -37z"/>
<path d="M4194 1900 c-9 -3 -15 -10 -14 -15 2 -16 -13 -115 -31 -193 -5 -23
-12 -59 -15 -78 -3 -20 -8 -46 -10 -58 -2 -11 -9 -48 -15 -81 -18 -101 -27
-140 -29 -140 -1 0 -3 -13 -5 -30 -7 -52 -13 -89 -24 -135 -5 -25 -12 -61 -16
-80 -3 -19 -10 -57 -15 -85 -5 -27 -12 -66 -15 -85 -3 -19 -8 -42 -10 -50 -2
-8 -7 -28 -10 -45 -2 -16 -7 -41 -10 -55 -2 -13 -7 -40 -10 -60 -3 -20 -8 -47
-10 -60 -16 -74 -36 -179 -41 -210 -3 -19 -12 -66 -20 -105 -8 -38 -16 -83
-19 -100 -2 -16 -9 -52 -15 -80 -5 -27 -12 -66 -15 -85 -3 -19 -8 -43 -11 -52
-5 -17 48 -18 1010 -18 961 0 1016 1 1017 18 0 9 2 26 5 37 2 11 6 38 9 60 3
22 8 57 11 77 2 21 7 50 9 65 2 15 8 62 14 103 6 41 14 93 16 115 3 22 8 51
10 65 2 14 7 45 10 70 7 52 13 94 20 130 2 14 7 49 10 79 4 30 9 63 11 75 2
12 6 39 9 61 2 22 7 51 9 64 3 13 8 47 11 75 2 28 7 62 10 76 3 14 8 43 10 65
3 22 8 57 11 77 6 42 9 71 19 143 7 51 12 85 19 120 2 11 7 46 11 79 3 32 8
68 10 80 2 11 6 38 9 59 3 20 9 53 12 72 3 19 2 36 -3 36 -28 5 -1917 3 -1929
-1z"/>
</g>
</svg>
